<?xml version="1.0" encoding="utf-8"?>
<!-- Generator: Adobe Illustrator 27.5.0, SVG Export Plug-In . SVG Version: 6.00 Build 0)  -->
<svg version="1.1" xmlns="http://www.w3.org/2000/svg" xmlns:xlink="http://www.w3.org/1999/xlink" x="0px" y="0px"
	 viewBox="0 0 500 500" style="enable-background:new 0 0 500 500;" xml:space="preserve">
<g id="BACKGROUND">
	<rect style="fill:#E2E5F9;" width="500" height="500"/>
</g>
<g id="OBJECTS">
	<g>
		<g>
			<path style="fill:#FFFFFF;" d="M304.763,88.231h89.494c0,0-3.134-10.184-15.322-10.968c-12.188-0.783-13.581,4.309-29.425-5.092
				C333.666,62.77,308.942,72.563,304.763,88.231z"/>
			<path style="fill:#FFFFFF;" d="M76.782,167.627c0,0-0.868-14.297,17.355-15.318c0,0,7.81,0,13.016,4.851
				c5.206,4.851,8.388,0.255,14.462,2.808c6.074,2.553,6.074,7.659,6.074,7.659H76.782z"/>
			<path style="fill:#FFFFFF;" d="M368.598,229.844h25.456c0,0-3.011-9.306-12.728-9.306S368.598,229.844,368.598,229.844z"/>
		</g>
		<g>
			<g>
				<g>
					<g>
						
							<ellipse transform="matrix(0.3147 -0.9492 0.9492 0.3147 126.3849 496.5364)" style="fill:#A6D9EF;" cx="407.054" cy="160.744" rx="27.068" ry="27.068"/>
					</g>
				</g>
				<g>
					<g>
						<g>
							<path style="fill:#5954ED;" d="M402.58,170.139c4.596,0.079,9.249,0.141,13.475-0.152c1.338-0.092,2.494-2.218,0.869-2.889
								c0.684-0.351,1.377-0.689,1.676-1.456c0.283-0.726-0.057-1.711-0.813-1.898c1.594,0.395,2.223-2.135,0.979-2.952
								c0.658-0.561,1.205-1.301,1.344-2.155c0.139-0.853-0.211-1.816-0.97-2.23c-0.498-0.271-1.09-0.282-1.657-0.286
								c-1.911-0.014-3.823-0.028-5.734-0.043c0.518-2.991,0.673-6.251-0.847-8.878c-0.458-0.791-1.688-1.74-2.664-1.131
								c-0.915,0.571-0.661,1.99-0.615,2.885c0.191,3.72-1.926,7.463-5.213,9.216C402.411,158.172,402.628,166.096,402.58,170.139z"
								/>
						</g>
					</g>
					<rect x="393.967" y="158.172" style="fill:#5954ED;" width="6.946" height="11.957"/>
				</g>
			</g>
			<g>
				<g>
					<g>
						<g>
							
								<ellipse transform="matrix(0.2287 -0.9735 0.9735 0.2287 -158.5549 255.45)" style="fill:#5954ED;" cx="81.936" cy="227.788" rx="20.868" ry="20.868"/>
						</g>
					</g>
				</g>
				<path style="fill:#FFFFFF;" d="M86.35,219.515c-4.051-0.046-4.38,2.427-4.38,2.427s-0.273-2.479-4.324-2.525
					c-4.051-0.046-5.53,4.589-4.51,7.378c0.785,2.147,5.504,6.878,7.63,8.937c0.582,0.564,1.501,0.574,2.096,0.024
					c2.172-2.01,6.997-6.632,7.83-8.761C91.773,224.228,90.401,219.561,86.35,219.515z"/>
			</g>
			<g>
				<path style="fill:#A6D9EF;" d="M170.617,116.012H55.198c-2.797,0-5.064-2.267-5.064-5.064V65.705
					c0-2.797,2.267-5.064,5.064-5.064h115.419c2.797,0,5.064,2.267,5.064,5.064v45.243
					C175.681,113.745,173.414,116.012,170.617,116.012z"/>
				<path style="fill:#5954ED;" d="M109.079,76.457l0.776,2.389c0.054,0.166,0.208,0.278,0.383,0.278h2.511
					c0.39,0,0.552,0.499,0.237,0.729l-2.032,1.476c-0.141,0.103-0.2,0.284-0.146,0.45l0.776,2.389c0.12,0.371-0.304,0.679-0.62,0.45
					l-2.032-1.476c-0.141-0.103-0.332-0.103-0.473,0l-2.032,1.476c-0.316,0.229-0.74-0.079-0.62-0.45l0.776-2.389
					c0.054-0.166-0.005-0.348-0.146-0.45l-2.032-1.476c-0.316-0.229-0.153-0.729,0.237-0.729h2.511c0.174,0,0.329-0.112,0.383-0.278
					l0.776-2.389C108.433,76.086,108.958,76.086,109.079,76.457z"/>
				<path style="fill:#5954ED;" d="M122.004,76.457l0.776,2.389c0.054,0.166,0.209,0.278,0.383,0.278h2.511
					c0.39,0,0.552,0.499,0.237,0.729l-2.032,1.476c-0.141,0.103-0.2,0.284-0.146,0.45l0.776,2.389c0.12,0.371-0.304,0.679-0.62,0.45
					l-2.032-1.476c-0.141-0.103-0.332-0.103-0.473,0l-2.032,1.476c-0.316,0.229-0.74-0.079-0.62-0.45l0.776-2.389
					c0.054-0.166-0.005-0.348-0.146-0.45l-2.032-1.476c-0.316-0.229-0.153-0.729,0.237-0.729h2.511c0.174,0,0.329-0.112,0.383-0.278
					l0.776-2.389C121.359,76.086,121.884,76.086,122.004,76.457z"/>
				<path style="fill:#5954ED;" d="M134.93,76.457l0.776,2.389c0.054,0.166,0.209,0.278,0.383,0.278h2.512
					c0.39,0,0.552,0.499,0.237,0.729l-2.032,1.476c-0.141,0.103-0.2,0.284-0.146,0.45l0.776,2.389c0.12,0.371-0.304,0.679-0.62,0.45
					l-2.032-1.476c-0.141-0.103-0.332-0.103-0.473,0l-2.032,1.476c-0.316,0.229-0.74-0.079-0.62-0.45l0.776-2.389
					c0.054-0.166-0.005-0.348-0.146-0.45l-2.032-1.476c-0.316-0.229-0.153-0.729,0.237-0.729h2.512c0.174,0,0.329-0.112,0.383-0.278
					l0.776-2.389C134.284,76.086,134.809,76.086,134.93,76.457z"/>
				<path style="fill:#5954ED;" d="M147.855,76.457l0.776,2.389c0.054,0.166,0.209,0.278,0.383,0.278h2.512
					c0.39,0,0.552,0.499,0.237,0.729l-2.032,1.476c-0.141,0.103-0.2,0.284-0.146,0.45l0.776,2.389c0.12,0.371-0.304,0.679-0.62,0.45
					l-2.032-1.476c-0.141-0.103-0.332-0.103-0.473,0l-2.032,1.476c-0.316,0.229-0.74-0.079-0.62-0.45l0.776-2.389
					c0.054-0.166-0.005-0.348-0.146-0.45l-2.032-1.476c-0.316-0.229-0.153-0.729,0.237-0.729h2.512c0.174,0,0.329-0.112,0.383-0.278
					l0.776-2.389C147.21,76.086,147.735,76.086,147.855,76.457z"/>
				<path style="fill:#FFFFFF;" d="M160.781,76.457l0.776,2.389c0.054,0.166,0.209,0.278,0.383,0.278h2.512
					c0.39,0,0.552,0.499,0.237,0.729l-2.032,1.476c-0.141,0.103-0.2,0.284-0.146,0.45l0.776,2.389c0.12,0.371-0.304,0.679-0.62,0.45
					l-2.032-1.476c-0.141-0.103-0.332-0.103-0.473,0l-2.032,1.476c-0.316,0.229-0.74-0.079-0.62-0.45l0.776-2.389
					c0.054-0.166-0.005-0.348-0.146-0.45l-2.032-1.476c-0.316-0.229-0.153-0.729,0.237-0.729h2.512c0.174,0,0.329-0.112,0.383-0.278
					l0.776-2.389C160.135,76.086,160.66,76.086,160.781,76.457z"/>
				
					<line style="fill:none;stroke:#FBF8F5;stroke-width:0.9843;stroke-miterlimit:10;" x1="104.823" y1="91.824" x2="164.855" y2="91.824"/>
				
					<line style="fill:none;stroke:#FBF8F5;stroke-width:0.9843;stroke-miterlimit:10;" x1="104.823" y1="99.323" x2="137.22" y2="99.323"/>
				
					<ellipse transform="matrix(0.1611 -0.9869 0.9869 0.1611 -21.9565 151.3317)" style="fill:#FFFFFF;" cx="78.04" cy="88.581" rx="18.293" ry="18.293"/>
				<polygon style="fill:#A6D9EF;" points="148.456,112.046 156.925,123.427 165.839,112.046 				"/>
				<g>
					<path style="fill:#5954ED;" d="M82.476,82.564c0,2.45-1.986,4.436-4.436,4.436c-2.45,0-4.436-1.986-4.436-4.436
						c0-2.45,1.986-4.436,4.436-4.436C80.49,78.128,82.476,80.114,82.476,82.564z"/>
					<path style="fill:#5954ED;" d="M84.97,97.415c0.841,0,1.483-0.766,1.326-1.592c-0.822-4.332-4.201-7.58-8.256-7.58
						c-4.055,0-7.434,3.248-8.256,7.58c-0.157,0.826,0.485,1.592,1.326,1.592H84.97z"/>
				</g>
			</g>
		</g>
		<g>
			<polygon style="fill:#CBD0F7;" points="134.362,260.083 134.362,266.611 140.521,266.611 140.521,317.667 115.633,317.667 
				115.633,293.037 76.549,293.037 76.549,423.689 109.75,423.689 115.633,423.689 140.521,423.689 151.834,423.689 
				182.605,423.689 182.605,266.611 182.605,262.268 182.605,260.083 			"/>
			<polygon style="fill:#CBD0F7;" points="398.947,327.545 398.947,268.867 344.221,268.867 344.221,301.808 313.497,301.808 
				313.497,423.689 344.221,423.689 354.837,423.689 378.276,423.689 398.947,423.689 419.617,423.689 419.617,333.956 
				424.704,333.956 424.704,327.545 			"/>
		</g>
	</g>
	<g>
		<g>
			<rect x="164.537" y="184.611" style="fill:#9B9CF2;" width="168.235" height="239.797"/>
			<g>
				<rect x="164.537" y="162.985" style="fill:#7F82DD;" width="168.235" height="21.626"/>
				<rect x="159.583" y="170.73" style="fill:#5954ED;" width="177.75" height="8.618"/>
				<polygon style="fill:#000054;" points="339.111,162.985 158.961,162.985 158.04,154.367 340.033,154.367 				"/>
				
					<line style="fill:none;stroke:#7F82DD;stroke-width:1.8429;stroke-miterlimit:10;" x1="164.537" y1="250.866" x2="332.772" y2="250.866"/>
				
					<line style="fill:none;stroke:#7F82DD;stroke-width:1.8429;stroke-miterlimit:10;" x1="164.537" y1="315.64" x2="332.772" y2="315.64"/>
				<rect x="164.537" y="406.435" style="fill:#7F82DD;" width="168.235" height="17.973"/>
			</g>
			<g>
				<g>
					<g>
						<path style="fill:#FFFFFF;" d="M204.586,194.454L204.586,194.454c-6.441,0-11.663,5.222-11.663,11.663v31.555h23.617v-31.265
							C216.539,199.806,211.188,194.454,204.586,194.454z"/>
						<path style="fill:#A6D9EF;" d="M204.731,197.777L204.731,197.777c-4.473,0-8.098,3.626-8.098,8.098v31.796h16.197v-31.796
							C212.829,201.403,209.204,197.777,204.731,197.777z"/>
						<rect x="196.633" y="210.1" style="fill:#5848E0;" width="16.197" height="1.977"/>
						<rect x="191.462" y="237.672" style="fill:#000054;" width="26.538" height="3.201"/>
						<g style="opacity:0.6;">
							<polygon style="opacity:0.72;fill:#FFFFFF;" points="197.275,234.387 196.111,231.552 211.906,219.32 213.818,221.576 
															"/>
							<polygon style="opacity:0.72;fill:#FFFFFF;" points="196.544,229.633 196.111,227.159 212.829,214.094 212.829,216.908 
															"/>
						</g>
						<path style="fill:#5848E0;" d="M213.818,237.672h-1.977v-31.796c0-3.92-3.189-7.11-7.11-7.11c-3.92,0-7.11,3.189-7.11,7.11
							v31.796h-1.977v-31.796c0-5.01,4.076-9.087,9.087-9.087c5.011,0,9.087,4.077,9.087,9.087V237.672z"/>
					</g>
					<g>
						<path style="fill:#FFFFFF;" d="M250.049,194.454L250.049,194.454c-6.441,0-11.663,5.222-11.663,11.663v31.555h23.617v-31.265
							C262.003,199.806,256.651,194.454,250.049,194.454z"/>
						<path style="fill:#A6D9EF;" d="M250.194,197.777L250.194,197.777c-4.473,0-8.098,3.626-8.098,8.098v31.796h16.197v-31.796
							C258.293,201.403,254.667,197.777,250.194,197.777z"/>
						<rect x="242.096" y="210.1" style="fill:#5848E0;" width="16.197" height="1.977"/>
						<rect x="236.925" y="237.672" style="fill:#000054;" width="26.538" height="3.201"/>
						<g style="opacity:0.6;">
							<polygon style="opacity:0.72;fill:#FFFFFF;" points="242.738,234.387 241.575,231.552 257.37,219.32 259.281,221.576 							
								"/>
							<polygon style="opacity:0.72;fill:#FFFFFF;" points="242.008,229.633 241.575,227.159 258.293,214.094 258.293,216.908 
															"/>
						</g>
						<path style="fill:#5848E0;" d="M259.281,237.672h-1.977v-31.796c0-3.92-3.19-7.11-7.11-7.11s-7.11,3.189-7.11,7.11v31.796
							h-1.977v-31.796c0-5.01,4.076-9.087,9.087-9.087s9.087,4.077,9.087,9.087V237.672z"/>
					</g>
					<g>
						<path style="fill:#FFFFFF;" d="M295.513,194.454L295.513,194.454c-6.441,0-11.663,5.222-11.663,11.663v31.555h23.617v-31.265
							C307.466,199.806,302.115,194.454,295.513,194.454z"/>
						<path style="fill:#A6D9EF;" d="M295.658,197.777L295.658,197.777c-4.473,0-8.098,3.626-8.098,8.098v31.796h16.197v-31.796
							C303.757,201.403,300.131,197.777,295.658,197.777z"/>
						<rect x="287.56" y="210.1" style="fill:#5848E0;" width="16.197" height="1.977"/>
						<rect x="282.389" y="237.672" style="fill:#000054;" width="26.538" height="3.201"/>
						<g style="opacity:0.6;">
							<polygon style="opacity:0.72;fill:#FFFFFF;" points="288.202,234.387 287.038,231.552 302.833,219.32 304.745,221.576 
															"/>
							<polygon style="opacity:0.72;fill:#FFFFFF;" points="287.471,229.633 287.038,227.159 303.757,214.094 303.757,216.908 
															"/>
						</g>
						<path style="fill:#5848E0;" d="M304.745,237.672h-1.977v-31.796c0-3.92-3.189-7.11-7.11-7.11c-3.92,0-7.11,3.189-7.11,7.11
							v31.796h-1.977v-31.796c0-5.01,4.076-9.087,9.087-9.087c5.011,0,9.087,4.077,9.087,9.087V237.672z"/>
					</g>
				</g>
				<g>
					<g>
						<path style="fill:#FFFFFF;" d="M204.586,259.771L204.586,259.771c-6.441,0-11.663,5.222-11.663,11.663v31.555h23.617v-31.265
							C216.539,265.123,211.188,259.771,204.586,259.771z"/>
						<path style="fill:#A6D9EF;" d="M204.731,263.095L204.731,263.095c-4.473,0-8.098,3.626-8.098,8.098v31.796h16.197v-31.796
							C212.829,266.721,209.204,263.095,204.731,263.095z"/>
						<rect x="196.633" y="275.417" style="fill:#5848E0;" width="16.197" height="1.977"/>
						<rect x="191.462" y="302.99" style="fill:#000054;" width="26.538" height="3.201"/>
						<g style="opacity:0.6;">
							<polygon style="opacity:0.72;fill:#FFFFFF;" points="197.275,299.704 196.111,296.87 211.906,284.638 213.818,286.893 
															"/>
							<polygon style="opacity:0.72;fill:#FFFFFF;" points="196.544,294.951 196.111,292.476 212.829,279.412 212.829,282.225 
															"/>
						</g>
						<path style="fill:#5848E0;" d="M213.818,302.99h-1.977v-31.796c0-3.92-3.189-7.11-7.11-7.11c-3.92,0-7.11,3.19-7.11,7.11
							v31.796h-1.977v-31.796c0-5.01,4.076-9.087,9.087-9.087c5.011,0,9.087,4.077,9.087,9.087V302.99z"/>
					</g>
					<g>
						<path style="fill:#FFFFFF;" d="M250.049,259.771L250.049,259.771c-6.441,0-11.663,5.222-11.663,11.663v31.555h23.617v-31.265
							C262.003,265.123,256.651,259.771,250.049,259.771z"/>
						<path style="fill:#A6D9EF;" d="M250.194,263.095L250.194,263.095c-4.473,0-8.098,3.626-8.098,8.098v31.796h16.197v-31.796
							C258.293,266.721,254.667,263.095,250.194,263.095z"/>
						<rect x="242.096" y="275.417" style="fill:#5848E0;" width="16.197" height="1.977"/>
						<rect x="236.925" y="302.99" style="fill:#000054;" width="26.538" height="3.201"/>
						<g style="opacity:0.6;">
							<polygon style="opacity:0.72;fill:#FFFFFF;" points="242.738,299.704 241.575,296.87 257.37,284.638 259.281,286.893 							
								"/>
							<polygon style="opacity:0.72;fill:#FFFFFF;" points="242.008,294.951 241.575,292.476 258.293,279.412 258.293,282.225 
															"/>
						</g>
						<path style="fill:#5848E0;" d="M259.281,302.99h-1.977v-31.796c0-3.92-3.19-7.11-7.11-7.11s-7.11,3.19-7.11,7.11v31.796
							h-1.977v-31.796c0-5.01,4.076-9.087,9.087-9.087s9.087,4.077,9.087,9.087V302.99z"/>
					</g>
					<g>
						<path style="fill:#FFFFFF;" d="M295.513,259.771L295.513,259.771c-6.441,0-11.663,5.222-11.663,11.663v31.555h23.617v-31.265
							C307.466,265.123,302.115,259.771,295.513,259.771z"/>
						<path style="fill:#A6D9EF;" d="M295.658,263.095L295.658,263.095c-4.473,0-8.098,3.626-8.098,8.098v31.796h16.197v-31.796
							C303.757,266.721,300.131,263.095,295.658,263.095z"/>
						<rect x="287.56" y="275.417" style="fill:#5848E0;" width="16.197" height="1.977"/>
						<rect x="282.389" y="302.99" style="fill:#000054;" width="26.538" height="3.201"/>
						<g style="opacity:0.6;">
							<polygon style="opacity:0.72;fill:#FFFFFF;" points="288.202,299.704 287.038,296.87 302.833,284.638 304.745,286.893 
															"/>
							<polygon style="opacity:0.72;fill:#FFFFFF;" points="287.471,294.951 287.038,292.476 303.757,279.412 303.757,282.225 
															"/>
						</g>
						<path style="fill:#5848E0;" d="M304.745,302.99h-1.977v-31.796c0-3.92-3.189-7.11-7.11-7.11c-3.92,0-7.11,3.19-7.11,7.11
							v31.796h-1.977v-31.796c0-5.01,4.076-9.087,9.087-9.087c5.011,0,9.087,4.077,9.087,9.087V302.99z"/>
					</g>
				</g>
				<g>
					<g>
						<path style="fill:#FFFFFF;" d="M250.049,325.089L250.049,325.089c-6.441,0-11.663,5.222-11.663,11.663v31.555h23.617v-31.265
							C262.003,330.44,256.651,325.089,250.049,325.089z"/>
						<path style="fill:#A6D9EF;" d="M250.194,328.412L250.194,328.412c-4.473,0-8.098,3.626-8.098,8.098v31.796h16.197v-31.796
							C258.293,332.038,254.667,328.412,250.194,328.412z"/>
						<rect x="242.096" y="340.735" style="fill:#5848E0;" width="16.197" height="1.977"/>
						<rect x="236.925" y="368.307" style="fill:#000054;" width="26.538" height="3.201"/>
						<g style="opacity:0.6;">
							<polygon style="opacity:0.72;fill:#FFFFFF;" points="242.738,365.022 241.575,362.187 257.37,349.955 259.281,352.211 
															"/>
							<polygon style="opacity:0.72;fill:#FFFFFF;" points="242.008,360.268 241.575,357.794 258.293,344.729 258.293,347.542 
															"/>
						</g>
						<path style="fill:#5848E0;" d="M259.281,368.307h-1.977v-31.796c0-3.92-3.19-7.11-7.11-7.11s-7.11,3.19-7.11,7.11v31.796
							h-1.977v-31.796c0-5.01,4.076-9.087,9.087-9.087s9.087,4.077,9.087,9.087V368.307z"/>
					</g>
					<g>
						<path style="fill:#FFFFFF;" d="M295.513,325.089L295.513,325.089c-6.441,0-11.663,5.222-11.663,11.663v31.555h23.617v-31.265
							C307.466,330.44,302.115,325.089,295.513,325.089z"/>
						<path style="fill:#A6D9EF;" d="M295.658,328.412L295.658,328.412c-4.473,0-8.098,3.626-8.098,8.098v31.796h16.197v-31.796
							C303.757,332.038,300.131,328.412,295.658,328.412z"/>
						<rect x="287.56" y="340.735" style="fill:#5848E0;" width="16.197" height="1.977"/>
						<rect x="282.389" y="368.307" style="fill:#000054;" width="26.538" height="3.201"/>
						<g style="opacity:0.6;">
							<polygon style="opacity:0.72;fill:#FFFFFF;" points="288.202,365.022 287.038,362.187 302.833,349.955 304.745,352.211 
															"/>
							<polygon style="opacity:0.72;fill:#FFFFFF;" points="287.471,360.268 287.038,357.794 303.757,344.729 303.757,347.542 
															"/>
						</g>
						<path style="fill:#5848E0;" d="M304.745,368.307h-1.977v-31.796c0-3.92-3.189-7.11-7.11-7.11c-3.92,0-7.11,3.19-7.11,7.11
							v31.796h-1.977v-31.796c0-5.01,4.076-9.087,9.087-9.087c5.011,0,9.087,4.077,9.087,9.087V368.307z"/>
					</g>
				</g>
				<g>
					<g>
						<path style="fill:#5954ED;" d="M218.475,405.241h-28.2v-64.859c0-7.787,6.313-14.1,14.1-14.1l0,0
							c7.787,0,14.1,6.313,14.1,14.1V405.241z"/>
						<path style="fill:#000054;" d="M219.668,406.435h-30.586v-66.053c0-8.433,6.86-15.294,15.293-15.294
							c8.433,0,15.293,6.86,15.293,15.294V406.435z M191.469,404.048h25.813v-63.666c0-7.117-5.79-12.907-12.906-12.907
							s-12.906,5.79-12.906,12.907V404.048z"/>
						<g>
							<path style="fill:#5954ED;" d="M191.469,404.048h25.813v-63.666c0-7.117-5.79-12.907-12.906-12.907
								s-12.906,5.79-12.906,12.907V404.048z"/>
							<path style="fill:#000054;" d="M190.287,346.075l-0.022-2.387c28.435-0.268,28.576-0.125,29.048,0.342l0.355,0.852h-2.387
								h1.193l-0.242,1.16C217.044,345.882,200.869,345.975,190.287,346.075z"/>
						</g>
						
							<rect x="195.34" y="349.955" style="fill:none;stroke:#7E7EF2;stroke-width:0.9214;stroke-miterlimit:10;" width="18.41" height="48.934"/>
						<path style="fill:none;stroke:#7E7EF2;stroke-width:0.9214;stroke-miterlimit:10;" d="M208.625,336.301
							c0,2.354-1.909,4.263-4.263,4.263c-2.354,0-4.263-1.909-4.263-4.263s1.909-4.263,4.263-4.263
							C206.716,332.038,208.625,333.947,208.625,336.301z"/>
					</g>
					<g>
						<rect x="182.272" y="406.435" style="fill:#FFFFFF;" width="44.181" height="18.14"/>
						<rect x="182.272" y="411.704" style="fill:#7F82DD;" width="44.181" height="1.3"/>
						<rect x="182.272" y="417.607" style="fill:#7F82DD;" width="44.181" height="1.3"/>
					</g>
				</g>
			</g>
		</g>
		<g>
			<rect x="213.994" y="144.98" style="fill:#000054;" width="2.72" height="10.183"/>
			<rect x="275.872" y="144.98" style="fill:#000054;" width="2.719" height="10.183"/>
			<g>
				<rect x="196.487" y="122.21" style="fill:#9B9CF2;" width="98.882" height="24.583"/>
				<path style="fill:#5954ED;" d="M296.728,148.153H195.127V120.85h101.601V148.153z M197.848,145.434h96.161v-21.864h-96.161
					V145.434z"/>
			</g>
			
				<text transform="matrix(1 0 0 1 211.9488 139.7338)" style="fill:#FBF8F5; font-family:'Montserrat-ExtraBold'; font-size:16.743px; letter-spacing:1;">hotel</text>
		</g>
	</g>
	<g>
		<g>
			<path style="fill:#9B9CF2;" d="M136.872,356.807c2.95-3.289,4.746-7.634,4.746-12.4c0-10.262-8.319-18.581-18.581-18.581
				s-18.581,8.319-18.581,18.581c0,4.766,1.796,9.111,4.746,12.4c-6.391,4.404-10.582,11.769-10.582,20.117
				c0,13.485,10.932,24.417,24.417,24.417c13.485,0,24.417-10.932,24.417-24.417C147.454,368.577,143.263,361.211,136.872,356.807z"
				/>
			<g>
				
					<line style="fill:none;stroke:#000054;stroke-width:1.1177;stroke-miterlimit:10;" x1="122.25" y1="350.384" x2="122.25" y2="424.408"/>
				
					<line style="fill:none;stroke:#000054;stroke-width:1.1177;stroke-miterlimit:10;" x1="112.299" y1="369.841" x2="122.25" y2="379.982"/>
				
					<line style="fill:none;stroke:#000054;stroke-width:1.1177;stroke-miterlimit:10;" x1="137.951" y1="373.069" x2="122.25" y2="390.429"/>
			</g>
		</g>
		<g>
			<path style="fill:#9B9CF2;" d="M387.084,356.807c2.95-3.289,4.746-7.634,4.746-12.4c0-10.262-8.319-18.581-18.581-18.581
				c-10.262,0-18.581,8.319-18.581,18.581c0,4.766,1.796,9.111,4.746,12.4c-6.391,4.404-10.582,11.769-10.582,20.117
				c0,13.485,10.932,24.417,24.417,24.417c13.485,0,24.417-10.932,24.417-24.417C397.666,368.577,393.474,361.211,387.084,356.807z"
				/>
			<g>
				
					<line style="fill:none;stroke:#000054;stroke-width:1.1177;stroke-miterlimit:10;" x1="372.461" y1="350.384" x2="372.461" y2="424.408"/>
				
					<line style="fill:none;stroke:#000054;stroke-width:1.1177;stroke-miterlimit:10;" x1="362.51" y1="369.841" x2="372.461" y2="379.982"/>
				
					<line style="fill:none;stroke:#000054;stroke-width:1.1177;stroke-miterlimit:10;" x1="388.163" y1="373.069" x2="372.461" y2="390.429"/>
			</g>
		</g>
	</g>
	
		<line style="fill:none;stroke:#000054;stroke-width:1.1177;stroke-miterlimit:10;" x1="43.123" y1="424.408" x2="450.921" y2="424.408"/>
</g>
<g id="DESIGNED_BY_FREEPIK">
	<g>
		<g id="XMLID_319_">
			<g id="XMLID_338_">
				<path id="XMLID_346_" style="fill:#222221;" d="M260.104,465.465c-0.432,0.443-0.803,0.931-1.108,1.453l-0.465-0.241
					c-0.067-0.298-0.349-0.503-0.659-0.466c-0.331,0.039-0.568,0.339-0.529,0.67s0.339,0.568,0.67,0.529
					c0.065-0.008,0.127-0.026,0.184-0.052l0.451,0.234c-0.251,0.554-0.433,1.139-0.539,1.744l0.746,0.132
					c0.23-1.306,0.85-2.507,1.792-3.473L260.104,465.465z"/>
				<path id="XMLID_345_" style="fill:#222221;" d="M265.592,463.163c-0.171,0-0.341,0.006-0.51,0.017l-0.074-0.626
					c0.188-0.149,0.296-0.389,0.266-0.645c-0.046-0.393-0.402-0.674-0.795-0.628s-0.674,0.402-0.628,0.795
					c0.03,0.254,0.189,0.461,0.405,0.564l0.073,0.624c-0.714,0.116-1.403,0.332-2.06,0.646l0.327,0.684
					c0.934-0.447,1.942-0.673,2.995-0.673c0.496,0,0.993,0.053,1.475,0.158l0.161-0.741
					C266.693,463.222,266.142,463.163,265.592,463.163z"/>
				<path id="XMLID_344_" style="fill:#222221;" d="M272.194,465.711c0.331-0.04,0.566-0.341,0.525-0.672
					c-0.04-0.331-0.341-0.566-0.672-0.526c-0.309,0.038-0.535,0.304-0.53,0.609l-0.416,0.363c-0.418-0.43-0.89-0.813-1.408-1.139
					l-0.404,0.641c1.134,0.715,2.021,1.726,2.563,2.925l0.691-0.313c-0.251-0.554-0.568-1.072-0.942-1.545l0.402-0.351
					C272.065,465.716,272.129,465.719,272.194,465.711z"/>
				<path id="XMLID_343_" style="fill:#222221;" d="M265.044,473.372c-0.386,0.023-0.775,0.035-1.157,0.035
					c-0.88,0-1.733-0.061-2.478-0.179c-0.39-0.062-0.846-0.155-1.27-0.292c1.046,1.861,3.069,3.125,5.388,3.125
					c2.855,0,5.262-1.916,5.95-4.504c-0.682,0.449-1.505,0.825-2.459,1.123C267.839,473.047,266.464,473.286,265.044,473.372z"/>
				<path id="XMLID_339_" style="fill:#222221;" d="M265.592,464.68c-3.352,0-6.08,2.666-6.08,5.943
					c0,0.426,0.046,0.849,0.137,1.261c0.674,0.483,2.706,0.89,5.348,0.731c2.879-0.173,5.297-0.957,6.672-2.159
					c-0.005-0.195-0.021-0.39-0.045-0.582C271.244,466.913,268.65,464.68,265.592,464.68z M263.432,471.194
					c-1.02,0-1.85-0.83-1.85-1.85c0-1.02,0.83-1.85,1.85-1.85c1.02,0,1.85,0.83,1.85,1.85
					C265.282,470.365,264.452,471.194,263.432,471.194z M268.17,470.286c-0.75,0-1.36-0.61-1.36-1.36s0.61-1.361,1.36-1.361
					c0.75,0,1.361,0.61,1.361,1.361S268.92,470.286,268.17,470.286z"/>
			</g>
			<path id="XMLID_336_" style="fill:#222221;" d="M281.595,466.547c-0.295-0.116-0.806-0.309-1.382-0.237
				c-0.551,0.069-0.844,0.341-0.844,1.007v0.866h2.228v1.717h-2.228v5.455h-1.932v-5.455h-1.34v-1.717h1.34v-0.888
				c0-1.68,0.896-2.783,2.568-2.783c0.642,0,1.157,0.122,1.59,0.308L281.595,466.547z"/>
			<path id="XMLID_334_" style="fill:#222221;" d="M286.298,469.879c-0.177-0.03-0.358-0.046-0.526-0.046
				c-0.896,0-1.51,0.548-1.51,1.614v3.908h-1.932v-7.172h1.873v0.785c0.451-0.673,1.14-0.977,2.021-0.977
				c0.414,0,0.848,0.128,1.094,0.337L286.298,469.879z"/>
			<path id="XMLID_331_" style="fill:#222221;" d="M293.965,471.757c0,0.222-0.015,0.489-0.037,0.651h-5.085
				c0.207,1.036,0.933,1.488,1.843,1.488c0.622,0,1.295-0.252,1.813-0.688l1.132,1.243c-0.814,0.748-1.85,1.088-3.057,1.088
				c-2.198,0-3.723-1.495-3.723-3.753c0-2.258,1.48-3.797,3.627-3.797C292.544,467.99,293.958,469.522,293.965,471.757z
				 M288.851,471.091h3.175c-0.177-0.918-0.733-1.436-1.562-1.436C289.554,469.655,289.021,470.203,288.851,471.091z"/>
			<path id="XMLID_328_" style="fill:#222221;" d="M301.618,471.757c0,0.222-0.015,0.489-0.037,0.651h-5.085
				c0.207,1.036,0.932,1.488,1.843,1.488c0.622,0,1.295-0.252,1.813-0.688l1.132,1.243c-0.814,0.748-1.85,1.088-3.057,1.088
				c-2.198,0-3.723-1.495-3.723-3.753c0-2.258,1.48-3.797,3.627-3.797C300.197,467.99,301.611,469.522,301.618,471.757z
				 M296.504,471.091h3.175c-0.178-0.918-0.733-1.436-1.562-1.436C297.207,469.655,296.674,470.203,296.504,471.091z"/>
			<path id="XMLID_325_" style="fill:#222221;" d="M309.964,471.764c0,2.154-1.495,3.775-3.471,3.775
				c-0.962,0-1.643-0.378-2.109-0.933v3.708h-1.924v-10.133h1.887v0.792c0.466-0.585,1.155-0.984,2.139-0.984
				C308.469,467.99,309.964,469.61,309.964,471.764z M304.287,471.764c0,1.132,0.747,1.976,1.843,1.976
				c1.14,0,1.85-0.881,1.85-1.976c0-1.095-0.71-1.976-1.85-1.976C305.035,469.788,304.287,470.632,304.287,471.764z"/>
			<path id="XMLID_322_" style="fill:#222221;" d="M313.068,465.836c0,0.696-0.54,1.229-1.236,1.229
				c-0.696,0-1.229-0.533-1.229-1.229c0-0.696,0.533-1.243,1.229-1.243C312.527,464.592,313.068,465.14,313.068,465.836z
				 M312.809,475.354h-1.932v-7.172h1.932V475.354z"/>
			<path id="XMLID_320_" style="fill:#222221;" d="M316.032,470.736l2.702-2.554h2.368l-3.479,3.375l3.501,3.797h-2.376
				l-2.716-2.901v2.901H314.1v-10.658h1.932V470.736z"/>
		</g>
		<g>
			<path style="fill:#222221;" d="M184.412,475.289v-1.055c-0.527,0.718-1.391,1.23-2.388,1.23c-1.846,0-3.149-1.406-3.149-3.706
				c0-2.256,1.289-3.721,3.149-3.721c0.952,0,1.816,0.469,2.388,1.245v-3.765h1.099v9.77H184.412z M184.412,473.37v-3.208
				c-0.395-0.615-1.245-1.143-2.124-1.143c-1.421,0-2.27,1.172-2.27,2.739c0,1.567,0.85,2.724,2.27,2.724
				C183.168,474.483,184.017,473.986,184.412,473.37z"/>
			<path style="fill:#222221;" d="M186.932,471.744c0-2.051,1.465-3.706,3.486-3.706c2.139,0,3.398,1.67,3.398,3.794v0.279h-5.727
				c0.088,1.333,1.025,2.446,2.549,2.446c0.805,0,1.626-0.322,2.182-0.894l0.527,0.718c-0.703,0.703-1.655,1.084-2.812,1.084
				C188.44,475.465,186.932,473.956,186.932,471.744z M190.403,468.947c-1.509,0-2.256,1.274-2.314,2.358h4.643
				C192.718,470.25,192.015,468.947,190.403,468.947z"/>
			<path style="fill:#222221;" d="M194.607,474.351l0.571-0.791c0.469,0.542,1.362,1.011,2.329,1.011c1.084,0,1.67-0.513,1.67-1.216
				c0-1.714-4.38-0.659-4.38-3.281c0-1.098,0.952-2.036,2.636-2.036c1.201,0,2.051,0.454,2.622,1.026l-0.513,0.762
				c-0.424-0.513-1.201-0.894-2.109-0.894c-0.967,0-1.567,0.483-1.567,1.113c0,1.552,4.38,0.527,4.38,3.281
				c0,1.187-0.952,2.138-2.783,2.138C196.306,475.465,195.325,475.113,194.607,474.351z"/>
			<path style="fill:#222221;" d="M201.477,466.471c0-0.41,0.337-0.747,0.732-0.747c0.41,0,0.747,0.337,0.747,0.747
				c0,0.41-0.337,0.732-0.747,0.732C201.814,467.203,201.477,466.881,201.477,466.471z M201.667,475.289v-7.075h1.099v7.075H201.667
				z"/>
			<path style="fill:#222221;" d="M204.582,477.105l0.556-0.82c0.586,0.703,1.289,0.967,2.3,0.967c1.172,0,2.27-0.571,2.27-2.124
				v-1.011c-0.513,0.718-1.377,1.26-2.373,1.26c-1.845,0-3.149-1.377-3.149-3.662c0-2.27,1.289-3.677,3.149-3.677
				c0.952,0,1.802,0.469,2.373,1.245v-1.069h1.098v6.87c0,2.344-1.641,3.076-3.369,3.076
				C206.237,478.16,205.417,477.926,204.582,477.105z M209.709,473.253v-3.091c-0.381-0.615-1.23-1.143-2.109-1.143
				c-1.421,0-2.27,1.128-2.27,2.695c0,1.553,0.849,2.695,2.27,2.695C208.478,474.41,209.328,473.868,209.709,473.253z"/>
			<path style="fill:#222221;" d="M217.413,475.289v-4.629c0-1.245-0.63-1.641-1.582-1.641c-0.865,0-1.685,0.527-2.095,1.099v5.17
				h-1.099v-7.075h1.099v1.025c0.498-0.586,1.465-1.201,2.519-1.201c1.48,0,2.256,0.747,2.256,2.285v4.966H217.413z"/>
			<path style="fill:#222221;" d="M219.932,471.744c0-2.051,1.465-3.706,3.486-3.706c2.139,0,3.398,1.67,3.398,3.794v0.279h-5.727
				c0.088,1.333,1.025,2.446,2.549,2.446c0.806,0,1.626-0.322,2.183-0.894l0.527,0.718c-0.703,0.703-1.655,1.084-2.812,1.084
				C221.441,475.465,219.932,473.956,219.932,471.744z M223.404,468.947c-1.509,0-2.256,1.274-2.314,2.358h4.643
				C225.718,470.25,225.015,468.947,223.404,468.947z"/>
			<path style="fill:#222221;" d="M233.35,475.289v-1.055c-0.527,0.718-1.392,1.23-2.388,1.23c-1.846,0-3.149-1.406-3.149-3.706
				c0-2.256,1.289-3.721,3.149-3.721c0.952,0,1.817,0.469,2.388,1.245v-3.765h1.098v9.77H233.35z M233.35,473.37v-3.208
				c-0.396-0.615-1.245-1.143-2.124-1.143c-1.421,0-2.27,1.172-2.27,2.739c0,1.567,0.849,2.724,2.27,2.724
				C232.105,474.483,232.954,473.986,233.35,473.37z"/>
			<path style="fill:#222221;" d="M239.692,475.289v-9.77h1.098v3.765c0.572-0.776,1.421-1.245,2.388-1.245
				c1.845,0,3.149,1.465,3.149,3.721c0,2.299-1.304,3.706-3.149,3.706c-0.996,0-1.86-0.513-2.388-1.23v1.055H239.692z
				 M242.9,474.483c1.436,0,2.285-1.157,2.285-2.724c0-1.568-0.85-2.739-2.285-2.739c-0.864,0-1.728,0.527-2.109,1.143v3.208
				C241.171,473.986,242.036,474.483,242.9,474.483z"/>
			<path style="fill:#222221;" d="M247.528,477.061c0.161,0.073,0.425,0.117,0.601,0.117c0.483,0,0.805-0.161,1.055-0.747
				l0.469-1.069l-2.959-7.148h1.187l2.358,5.8l2.344-5.8h1.201l-3.545,8.51c-0.425,1.025-1.143,1.421-2.08,1.435
				c-0.234,0-0.601-0.044-0.805-0.103L247.528,477.061z"/>
		</g>
	</g>
</g>
</svg>
